<svg width="14" height="14" viewBox="0 0 14 14" fill="none" xmlns="http://www.w3.org/2000/svg">
<path d="M0.714355 4.57483C0.756012 4.28066 0.78775 3.9848 0.840698 3.69276C1.14084 2.03862 2.31195 0.913176 3.98645 0.8555C6.00259 0.786228 8.02484 0.782566 10.0407 0.855195C11.8632 0.920805 13.1831 2.27024 13.24 4.09329C13.3006 6.02909 13.3006 7.96963 13.24 9.90543C13.1831 11.7285 11.8636 13.0778 10.0408 13.1435C8.02499 13.2163 6.00229 13.2181 3.9866 13.1425C2.16379 13.0739 0.903717 11.7215 0.781799 9.89567C0.771271 9.73775 0.737396 9.5812 0.714355 9.42404C0.714355 7.80759 0.714355 6.19113 0.714355 4.57483ZM7.00159 12.0631C7.92413 12.0631 8.8476 12.0907 9.76892 12.0567C11.2135 12.0031 12.102 11.141 12.1357 9.69792C12.1775 7.89975 12.1775 6.09913 12.1357 4.3008C12.102 2.85798 11.2129 1.97576 9.76892 1.94509C7.93619 1.90633 6.10147 1.90664 4.26874 1.94509C2.83578 1.97515 1.94467 2.83952 1.90576 4.26647C1.85632 6.08738 1.85632 7.91149 1.90576 9.73241C1.94467 11.1592 2.83578 12.0036 4.26889 12.0567C5.17862 12.0906 6.09064 12.0631 7.00159 12.0631Z" fill="white"/>
</svg>
